<?xml version="1.0" encoding="UTF-8" standalone="no"?>
<!-- Created with Inkscape (http://www.inkscape.org/) -->

<svg
   xmlns:dc="http://purl.org/dc/elements/1.1/"
   xmlns:cc="http://creativecommons.org/ns#"
   xmlns:rdf="http://www.w3.org/1999/02/22-rdf-syntax-ns#"
   xmlns:svg="http://www.w3.org/2000/svg"
   xmlns="http://www.w3.org/2000/svg"
   xmlns:sodipodi="http://sodipodi.sourceforge.net/DTD/sodipodi-0.dtd"
   xmlns:inkscape="http://www.inkscape.org/namespaces/inkscape"
   width="136.32605mm"
   height="50.000046mm"
   viewBox="0 0 136.32605 50.000046"
   version="1.1"
   id="svg8"
   inkscape:version="0.92.3 (2405546, 2018-03-11)"
   sodipodi:docname="5711.svg">
  <defs
     id="defs2" />
  <sodipodi:namedview
     id="base"
     pagecolor="#ffffff"
     bordercolor="#666666"
     borderopacity="1.0"
     inkscape:pageopacity="0.0"
     inkscape:pageshadow="2"
     inkscape:zoom="1.4"
     inkscape:cx="95.086651"
     inkscape:cy="-7.497892"
     inkscape:document-units="mm"
     inkscape:current-layer="layer1"
     showgrid="false"
     fit-margin-top="0"
     fit-margin-left="0"
     fit-margin-right="0"
     fit-margin-bottom="0"
     inkscape:window-width="1920"
     inkscape:window-height="1017"
     inkscape:window-x="-8"
     inkscape:window-y="-8"
     inkscape:window-maximized="1" />
  <metadata
     id="metadata5">
    <rdf:RDF>
      <cc:Work
         rdf:about="">
        <dc:format>image/svg+xml</dc:format>
        <dc:type
           rdf:resource="http://purl.org/dc/dcmitype/StillImage" />
        <dc:title></dc:title>
      </cc:Work>
    </rdf:RDF>
  </metadata>
  <g
     inkscape:label="Layer 1"
     inkscape:groupmode="layer"
     id="layer1"
     transform="translate(-65.481273,-41.91372)">
    <path
       style="opacity:1;fill:#ff0000;fill-opacity:0.58201055;stroke:none;stroke-width:1.08774817;stroke-linecap:butt;stroke-linejoin:miter;stroke-miterlimit:4;stroke-dasharray:none;stroke-dashoffset:0;stroke-opacity:1;paint-order:normal"
       d="m 65.481273,41.91372 c 0,10.000077 0,20.000158 0,30.000235 6.666603,0 13.333209,0 19.999812,0 0,3.333303 0,6.666603 0,9.999906 -6.666603,0 -13.333209,0 -19.999812,0 0,3.333303 0,6.666603 0,9.999906 9.999906,0 19.999814,0 29.99972,0 0,-9.999906 0,-19.999812 0,-29.999717 -6.666605,0 -13.333208,0 -19.999814,0 0,-3.333475 0,-6.66695 0,-10.000425 6.666606,0 13.333209,0 19.999814,0 0,-3.333303 0,-6.666603 0,-9.999905 -9.999906,0 -19.999814,0 -29.99972,0 z m 35.442277,0 c 0,3.333302 0,6.666602 0,9.999905 6.66661,0 13.33321,0 19.99982,0 0,3.333475 0,6.66695 0,10.000425 3.3333,0 6.6666,0 9.9999,0 0,-6.666778 0,-13.333553 0,-20.00033 -9.9999,0 -19.99981,0 -29.99972,0 z m 19.99982,20.00033 c -3.33331,0 -6.66661,0 -9.99991,0 0,6.666603 0,13.333208 0,19.999811 3.3333,0 6.6666,0 9.99991,0 0,-6.666603 0,-13.333208 0,-19.999811 z m -9.99991,19.999811 c -3.3333,0 -6.6666,0 -9.99991,0 0,3.333303 0,6.666603 0,9.999906 3.33331,0 6.66661,0 9.99991,0 0,-3.333303 0,-6.666603 0,-9.999906 z M 146.36523,41.91372 c 0,3.333302 0,6.666602 0,9.999905 -3.33348,0 -6.66695,0 -10.00043,0 0,3.333475 0,6.66695 0,10.000425 3.33348,0 6.66695,0 10.00043,0 0,6.666603 0,13.333208 0,19.999811 -3.33348,0 -6.66695,0 -10.00043,0 0,3.333303 0,6.666603 0,9.999906 10.00008,0 20.00016,0 30.00024,0 0,-3.333303 0,-6.666603 0,-9.999906 -3.33331,0 -6.66661,0 -9.99991,0 0,-13.33338 0,-26.666761 0,-40.000141 -3.3333,0 -6.6666,0 -9.9999,0 z m 35.44176,0 c 0,3.333302 0,6.666602 0,9.999905 -3.3333,0 -6.66661,0 -9.99991,0 0,3.333475 0,6.66695 0,10.000425 3.3333,0 6.66661,0 9.99991,0 0,6.666603 0,13.333208 0,19.999811 -3.3333,0 -6.66661,0 -9.99991,0 0,3.333303 0,6.666603 0,9.999906 10.00008,0 20.00016,0 30.00024,0 0,-3.333303 0,-6.666603 0,-9.999906 -3.33348,0 -6.66695,0 -10.00043,0 0,-13.33338 0,-26.666761 0,-40.000141 -3.3333,0 -6.6666,0 -9.9999,0 z"
       id="rect815"
       inkscape:connector-curvature="0" />
  </g>
</svg>
